<svg xmlns="http://www.w3.org/2000/svg" viewBox="0 0 64 64">
  <rect width="64" height="64" rx="12" fill="#3a6B35"/>
  <path d="M32 12 C28 12 26 14 26 18 C26 20 27 22 28 23 C24 24 20 28 20 34 C20 42 25 48 32 52 C39 48 44 42 44 34 C44 28 40 24 36 23 C37 22 38 20 38 18 C38 14 36 12 32 12 Z" fill="#D4956A"/>
  <path d="M32 12 L32 22" stroke="#8c6239" stroke-width="1.5" fill="none"/>
  <path d="M30 18 C28 20 27 22 28 23" stroke="#8c6239" stroke-width="1" fill="none"/>
  <path d="M34 18 C36 20 37 22 36 23" stroke="#8c6239" stroke-width="1" fill="none"/>
  <ellipse cx="32" cy="38" rx="8" ry="10" fill="#faf8f5" opacity="0.9"/>
  <path d="M28 34 Q30 36 28 40" stroke="#8c6239" stroke-width="0.8" fill="none"/>
  <path d="M36 34 Q34 36 36 40" stroke="#8c6239" stroke-width="0.8" fill="none"/>
</svg>